<?xml version="1.0" encoding="iso-8859-1"?>
<!-- Uploaded to: SVG Repo, www.svgrepo.com, Generator: SVG Repo Mixer Tools -->
<svg fill="#000000" height="64px" width="64px" version="1.1" id="Capa_1" xmlns="http://www.w3.org/2000/svg" xmlns:xlink="http://www.w3.org/1999/xlink" 
	 viewBox="0 0 459.469 459.469" xml:space="preserve">
<path id="XMLID_812_" d="M390.052,183.518c-14.224-6.208-34.583-11.552-58.878-15.455c-4.906-0.789-9.525,2.55-10.314,7.459
	c-0.788,4.907,2.551,9.525,7.458,10.313c22.821,3.666,41.679,8.569,54.534,14.18c13.098,5.717,15.967,10.42,15.967,11.75
	c0,2.177-7.676,12.119-45.229,20.991c-4.855,1.147-15.772,3.295-16.027,3.354c-30.598,5.659-68.175,8.727-107.828,8.727
	c-39.653,0-77.23-3.069-107.829-8.728c-0.254-0.059-11.171-2.207-16.026-3.354c-37.553-8.872-45.229-18.814-45.229-20.991
	c0-1.33,2.869-6.033,15.967-11.75c12.854-5.61,31.711-10.514,54.532-14.18c4.907-0.789,8.247-5.406,7.458-10.314
	c-0.789-4.908-5.406-8.247-10.313-7.458c-24.295,3.903-44.655,9.248-58.877,15.455c-17.761,7.752-26.767,17.256-26.767,28.247
	c0,16.289,19.881,29.245,59.091,38.508c2.959,0.699,6.002,1.372,9.123,2.016v172.224c0,33.975,106.703,34.956,118.87,34.956
	s118.871-0.981,118.871-34.956V252.289c3.121-0.645,6.164-1.317,9.124-2.016c39.21-9.263,59.091-22.219,59.091-38.508
	C416.819,200.773,407.813,191.27,390.052,183.518z M330.604,423.834c-1.52,1.932-9.119,6.972-30.019,11.332
	c-19.485,4.064-44.647,6.303-70.852,6.303s-51.367-2.238-70.852-6.303c-20.9-4.36-28.499-9.4-30.019-11.332v-168.27
	c29.636,4.73,64.458,7.272,100.87,7.272s71.235-2.542,100.871-7.271V423.834z M153.749,205.151c-2.498-0.866-4.404-1.75-5.664-2.625
	c-4.081-2.837-9.69-1.828-12.527,2.254c-2.836,4.082-1.827,9.69,2.254,12.527c15.001,10.425,58.893,14.125,91.921,14.125
	s76.92-3.699,91.922-14.125c4.082-2.836,5.091-8.445,2.254-12.526c-2.837-4.083-8.445-5.091-12.526-2.255
	c-1.26,0.875-3.165,1.759-5.663,2.625l19.203-167.66c1.137-9.923-1.75-19.327-8.129-26.477C310.46,3.911,301.535,0,291.662,0
	c-19.573,0-37.317,15.9-39.555,35.442L231.72,213.427c-1.317,0.005-2.654,0.005-3.971,0L207.362,35.443
	C205.124,15.899,187.379,0,167.807,0c-9.872,0-18.797,3.911-25.132,11.012c-6.378,7.15-9.266,16.554-8.13,26.479L153.749,205.151z
	 M269.99,37.491C271.2,26.926,281.125,18,291.663,18c4.672,0,8.827,1.774,11.701,4.995c2.917,3.27,4.223,7.691,3.679,12.448
	l-19.93,174.003c-3.123,0.506-6.49,0.979-10.087,1.41l14.374-125.49c0.566-4.938-2.979-9.4-7.917-9.965
	c-4.929-0.567-9.4,2.979-9.965,7.917l-14.799,129.204c-2.857,0.187-5.8,0.347-8.83,0.479L269.99,37.491z M156.107,22.994
	c2.873-3.22,7.028-4.994,11.701-4.994c10.537,0,20.462,8.926,21.672,19.491L209.582,213c-3.029-0.132-5.971-0.292-8.828-0.479
	L185.955,83.317c-0.566-4.938-5.029-8.484-9.965-7.917c-4.938,0.565-8.483,5.027-7.917,9.965l14.374,125.49
	c-3.595-0.431-6.965-0.904-10.087-1.41l-19.93-174.003C151.883,30.686,153.19,26.264,156.107,22.994z"/>
</svg>